<svg id="Layer_1" data-name="Layer 1" xmlns="http://www.w3.org/2000/svg" xmlns:xlink="http://www.w3.org/1999/xlink" viewBox="0 0 300.75 60.68"><defs><style>.cls-1{fill:none;}.cls-2,.cls-6{fill:#231f20;}.cls-3{clip-path:url(#clip-path);}.cls-4{fill:#fff;}.cls-5{font-size:13.82px;fill:#58b947;font-family:Dekar;}.cls-6{font-size:11.59px;font-family:Myriad Pro;}</style><clipPath id="clip-path" transform="translate(-204.64 -229.62)"><rect class="cls-1" x="204.64" y="229.62" width="299.76" height="60.68"/></clipPath></defs><title>DigitalGarage_logo_grn_bg</title><rect class="cls-2" x="96.5" y="17.29" width="1.56" height="21.9"/><g class="cls-3"><path class="cls-2" d="M323.43,264.88c0,2-1.53,3.31-3.47,3.87a13.07,13.07,0,0,1-6.12,0c-2-.53-3.62-1.81-3.65-3.91v-14c0-2.28,1.94-3.62,4.22-4.06a13.15,13.15,0,0,1,5.84.28c1.84,0.59,3.19,1.87,3.19,3.81l-1.56,0a2.63,2.63,0,0,0-2.09-2.31,11.18,11.18,0,0,0-5.09-.22c-1.59.31-2.94,1.16-2.94,2.56v14c0,1.25,1.09,2.06,2.5,2.41a11.59,11.59,0,0,0,5.28,0c1.34-.38,2.34-1.16,2.34-2.38v-5.44h-4.31V258h5.87v6.87Z" transform="translate(-204.64 -229.62)"/></g><rect class="cls-2" x="126.28" y="17.29" width="1.56" height="21.9"/><polygon class="cls-2" points="133.65 17.33 147.12 17.33 147.12 18.7 141.18 18.7 141.12 39.2 139.53 39.2 139.59 18.7 133.65 18.7 133.65 17.33"/><g class="cls-3"><path class="cls-2" d="M358,250.95v7.75h10.12v-7.75a2.27,2.27,0,0,0-1.22-1.91c-1.78-1.09-6-1.06-7.72,0a2.23,2.23,0,0,0-1.19,1.91m11.66,0h0v17.87h-1.56v-8.56H358v8.56h-1.56V250.95a3.68,3.68,0,0,1,1.94-3.22c2.28-1.37,7.09-1.37,9.34,0a3.68,3.68,0,0,1,1.94,3.22" transform="translate(-204.64 -229.62)"/><path class="cls-2" d="M388.27,267.22v1.59h-4.53c-3,0-5.94-1.22-5.94-4.69V246.95h1.59v17.18c0,2.34,2.44,3.09,4.34,3.09h4.53Z" transform="translate(-204.64 -229.62)"/><path class="cls-2" d="M409.32,264.51c0,2-1.53,3.31-3.47,3.87a13.07,13.07,0,0,1-6.12,0c-2-.53-3.62-1.81-3.65-3.91v-14c0-2.28,1.94-3.62,4.22-4.06a13.15,13.15,0,0,1,5.84.28c1.84,0.59,3.19,1.87,3.19,3.81l-1.56,0a2.63,2.63,0,0,0-2.09-2.31,11.18,11.18,0,0,0-5.09-.22c-1.59.31-2.94,1.16-2.94,2.56v14c0,1.25,1.09,2.06,2.5,2.41a11.59,11.59,0,0,0,5.28,0c1.34-.38,2.34-1.16,2.34-2.38v-5.44h-4.31v-1.44h5.87v6.87Z" transform="translate(-204.64 -229.62)"/><path class="cls-2" d="M416.37,250.57v7.75h10.12v-7.75a2.27,2.27,0,0,0-1.22-1.91c-1.78-1.09-6-1.06-7.72,0a2.23,2.23,0,0,0-1.19,1.91m11.66,0h0v17.87h-1.56v-8.56H416.37v8.56h-1.56V250.57a3.68,3.68,0,0,1,1.94-3.22c2.28-1.37,7.09-1.37,9.34,0a3.68,3.68,0,0,1,1.94,3.22" transform="translate(-204.64 -229.62)"/><path class="cls-2" d="M445.48,250.76c0-2-2.66-2.81-4.25-2.81h-4.34v10.72h4.22c1.69,0,4.37-.53,4.37-2.69v-5.22Zm-8.59,9.31v8.37h-1.53V246.58h5.87c0.75,0,5.81.06,5.81,4.19V256a3.63,3.63,0,0,1-3,3.47,3.59,3.59,0,0,1,3,3.4v5.59h-1.56v-5.59c0-2.12-2.78-2.78-4.37-2.78h-4.22Z" transform="translate(-204.64 -229.62)"/><path class="cls-2" d="M455.43,250.57v7.75h10.12v-7.75a2.27,2.27,0,0,0-1.22-1.91c-1.78-1.09-6-1.06-7.72,0a2.23,2.23,0,0,0-1.19,1.91m11.66,0h0v17.87h-1.56v-8.56H455.43v8.56h-1.56V250.57a3.68,3.68,0,0,1,1.94-3.22c2.28-1.37,7.09-1.37,9.34,0a3.68,3.68,0,0,1,1.94,3.22" transform="translate(-204.64 -229.62)"/><path class="cls-2" d="M486.07,264.51c0,2-1.53,3.31-3.47,3.87a13.07,13.07,0,0,1-6.12,0c-2-.53-3.62-1.81-3.65-3.91v-14c0-2.28,1.94-3.62,4.22-4.06a13.15,13.15,0,0,1,5.84.28c1.84,0.59,3.19,1.87,3.19,3.81l-1.56,0a2.63,2.63,0,0,0-2.09-2.31,11.18,11.18,0,0,0-5.09-.22c-1.59.31-2.94,1.16-2.94,2.56v14c0,1.25,1.09,2.06,2.5,2.41a11.59,11.59,0,0,0,5.28,0c1.34-.38,2.34-1.16,2.34-2.38v-5.44h-4.31v-1.44h5.87v6.87Z" transform="translate(-204.64 -229.62)"/><path class="cls-2" d="M493.91,256.7H504v1.59H493.91a64.17,64.17,0,0,0,.13,6.59c0.5,1.47,2.69,2,4.16,2H504v1.59H498.2v0c-2.66,0-5.84-1.22-5.84-4.19V246.54H504v1.56H493.91v8.59Z" transform="translate(-204.64 -229.62)"/></g><polygon class="cls-2" points="0 0 0 4.66 5.85 4.66 5.85 56.01 0 56.01 0 60.68 12.32 60.68 12.32 0 0 0"/><polygon class="cls-2" points="62.49 0 62.49 60.68 75.03 60.68 75.03 56.01 68.97 56.01 68.97 4.66 75.03 4.66 75.03 0 62.49 0"/><g class="cls-3"><path class="cls-2" d="M293.62,251.13c0-1.87-2.5-2.66-4.12-2.66h-6v18.75h5.78c1.47,0,3.69-.5,4.19-2,0.22-.62.13-11.43,0.13-14.09m-11.69,17.68v-21.9h7.59c2.53,0,5.69,1.28,5.69,4.22v13.43c0,3-3.22,4.25-5.91,4.25h-7.37Z" transform="translate(-204.64 -229.62)"/></g><path class="cls-4" d="M450.22,283.22a1.85,1.85,0,0,1-1.53,1.71,5.79,5.79,0,0,1-2.71,0,1.88,1.88,0,0,1-1.62-1.73V277h0a2,2,0,0,1,1.86-1.79,5.81,5.81,0,0,1,2.58.12,1.79,1.79,0,0,1,1.41,1.68h-0.69a1.16,1.16,0,0,0-.93-1,4.93,4.93,0,0,0-2.25-.1,1.34,1.34,0,0,0-1.3,1.13v6.19a1.22,1.22,0,0,0,1.1,1.06,5.12,5.12,0,0,0,2.33,0,1.18,1.18,0,0,0,1-1v-2.4h-1.91v-0.64h2.6v3Z" transform="translate(-204.64 -229.62)"/><path class="cls-4" d="M451.66,277c0-2.47,5.83-2.47,5.83,0v6.16c0,2.51-5.83,2.51-5.83,0V277Zm5.12,6.09V277c0-1.63-4.45-1.63-4.45,0v6.09a1,1,0,0,0,0,.36c0.41,1.2,3.92,1.2,4.34,0A1,1,0,0,0,456.78,283.13Z" transform="translate(-204.64 -229.62)"/><path class="cls-4" d="M461.48,285.52l3.85-10h0.94l-3.87,10h-0.92Z" transform="translate(-204.64 -229.62)"/><path class="cls-4" d="M476.07,283.14a1.83,1.83,0,0,1-1.53,1.73,6.18,6.18,0,0,1-2.71,0,1.89,1.89,0,0,1-1.62-1.73v-6.06a2,2,0,0,1,1.86-1.79,6,6,0,0,1,2.58.11,1.8,1.8,0,0,1,1.41,1.68h-0.69a1.16,1.16,0,0,0-.93-1,5.16,5.16,0,0,0-2.25-.08,1.35,1.35,0,0,0-1.3,1.12v6.06a1.24,1.24,0,0,0,1.1,1.06,5.32,5.32,0,0,0,2.33,0,1.19,1.19,0,0,0,1-1h0.69Z" transform="translate(-204.64 -229.62)"/><path class="cls-4" d="M477.35,277c0-2.47,5.83-2.47,5.83,0v6.16c0,2.51-5.83,2.51-5.83,0V277Zm5.12,6.09V277c0-1.63-4.45-1.63-4.45,0v6.09a1,1,0,0,0,0,.36c0.41,1.2,3.92,1.2,4.34,0A1,1,0,0,0,482.48,283.13Z" transform="translate(-204.64 -229.62)"/><path class="cls-4" d="M484.59,285v-9.68h3.36c1.12,0,2.51.57,2.51,1.86v5.94c0,1.33-1.42,1.88-2.61,1.88h-3.26Zm5.17-7.82c0-.83-1.11-1.17-1.82-1.17H485.3v8.29h2.55a1.93,1.93,0,0,0,1.85-.88C489.8,283.1,489.76,278.32,489.76,277.15Z" transform="translate(-204.64 -229.62)"/><path class="cls-4" d="M492.59,279.77H497v0.7h-4.45a28.33,28.33,0,0,0,.06,2.91,1.93,1.93,0,0,0,1.84.87H497V285h-2.55c-1.17,0-2.58-.54-2.58-1.85v-7.82H497V276h-4.45v3.8Z" transform="translate(-204.64 -229.62)"/><text class="cls-5" transform="translate(293.1 55.34)"> </text><g class="cls-3"><text class="cls-6" transform="translate(297.98 53.3)">|</text></g><rect class="cls-2" x="16.24" y="5.67" width="42.34" height="5.76"/><g class="cls-3"><path class="cls-2" d="M262.51,229.62H221.58a0.7,0.7,0,0,0-.7.7v2.18h42.33v-2.18a0.7,0.7,0,0,0-.7-0.7" transform="translate(-204.64 -229.62)"/></g><rect class="cls-2" x="16.24" y="14.19" width="42.34" height="5.76"/><rect class="cls-2" x="16.24" y="23.21" width="42.34" height="5.76"/><rect class="cls-4" x="16.24" y="32.81" width="42.34" height="5.76"/></svg>