<svg xmlns="http://www.w3.org/2000/svg" xmlns:xlink="http://www.w3.org/1999/xlink" id="Layer_1" data-name="Layer 1" viewBox="0 0 75 60.7"><defs><style>.cls-1{fill:none;}.cls-2,.cls-6{fill:#231f20;}.cls-3{clip-path:url(#clip-path);}.cls-4{fill:#fff;}.cls-5{font-size:13.82px;fill:#58b947;font-family:Dekar;}.cls-6{font-size:11.59px;font-family:Myriad Pro;}</style><clipPath id="clip-path" transform="translate(-204.64 -229.62)"><rect class="cls-1" x="204.64" y="229.62" width="299.76" height="60.68"/></clipPath></defs><title>DigitalGarage_logo_grn_bg</title><polygon class="cls-2" points="0 0 0 4.66 5.85 4.66 5.85 56.01 0 56.01 0 60.68 12.32 60.68 12.32 0 0 0"/><polygon class="cls-2" points="62.49 0 62.49 60.68 75.03 60.68 75.03 56.01 68.97 56.01 68.97 4.66 75.03 4.66 75.03 0 62.49 0"/><rect class="cls-2" x="16.24" y="5.67" width="42.34" height="5.76"/><g class="cls-3"><path class="cls-2" d="M262.51,229.62H221.58a0.7,0.7,0,0,0-.7.7v2.18h42.33v-2.18a0.7,0.7,0,0,0-.7-0.7" transform="translate(-204.64 -229.62)"/></g><rect class="cls-2" x="16.24" y="14.19" width="42.34" height="5.76"/><rect class="cls-2" x="16.24" y="23.21" width="42.34" height="5.76"/><rect class="cls-4" x="16.24" y="32.81" width="42.34" height="5.76"/></svg>