
		<svg xmlns="http://www.w3.org/2000/svg" xmlns:xlink="http://www.w3.org/1999/xlink" version="1.1" width="3137.299771167048" height="1098.3981693363844">
			
			<g transform="scale(6.864988558352403) translate(10, 10)">
				<defs id="SvgjsDefs1060"/><g id="SvgjsG1061" featureKey="root" fill="#fff" transform="matrix(1,0,0,1,0,0)"/><g id="SvgjsG1062" featureKey="symbol1" fill="#fff" transform="matrix(2.6,0,0,2.6,-16,-21)"><g><g><path d="M37,60h-4c-0.4042969,0-0.769043-0.2431641-0.9238281-0.6171875L30.6103516,55.84375l-3.5366211,1.4707031    c-0.3754883,0.1523438-0.8061523,0.0693359-1.0922852-0.2177734l-2.8203125-2.8300781    c-0.2851563-0.2861328-0.3701172-0.7158203-0.2148438-1.0898438l1.4707031-3.5419922l-3.5473633-1.4599609    C20.4946289,48.0205078,20.25,47.6552734,20.25,47.25v-4c0-0.4052734,0.2446289-0.7705078,0.6196289-0.9248047    l3.5439453-1.4589844l-1.4677734-3.5429688c-0.1547852-0.3740234-0.0693359-0.8037109,0.2167969-1.0898438l2.8203125-2.8203125    c0.2861328-0.2861328,0.7143555-0.3740234,1.0898438-0.2167969l3.5429688,1.4677734l1.4594727-3.5449219    C32.2294922,30.7441406,32.5947266,30.5,33,30.5h4c0.4052734,0,0.7705078,0.2441406,0.9248047,0.6191406l1.4604492,3.5478516    l3.5410156-1.4707031c0.3735352-0.1523438,0.8037109-0.0693359,1.0898438,0.2158203l2.8295898,2.8203125    c0.2871094,0.2861328,0.3730469,0.7177734,0.2172852,1.0917969l-1.4697266,3.5361328l3.5390625,1.4658203    C49.5063477,42.4804688,49.75,42.8457031,49.75,43.25v4c0,0.4042969-0.2436523,0.7695313-0.6171875,0.9238281L45.59375,49.640625    l1.4692383,3.5361328c0.1552734,0.3740234,0.0698242,0.8046875-0.2163086,1.0908203l-2.8295898,2.8300781    c-0.2871094,0.2871094-0.7167969,0.3691406-1.0908203,0.2167969L39.3891602,55.84375l-1.465332,3.5390625    C37.769043,59.7558594,37.4042969,60,37,60z M33.6679688,58h2.6635742l1.3842773-3.3427734    c0.105957-0.2558594,0.3139648-0.4570313,0.5737305-0.5537109c0.2119141-0.0791016,0.4145508-0.1669922,0.6176758-0.2646484    c0.2573242-0.1220703,0.5537109-0.1308594,0.8164063-0.0224609l3.3525391,1.3935547l1.8833008-1.8837891l-1.3930664-3.3525391    c-0.109375-0.2626953-0.1015625-0.5605469,0.0219727-0.8173828c0.0976563-0.203125,0.1860352-0.4072266,0.2661133-0.6191406    c0.0976563-0.2578125,0.2978516-0.4648438,0.5527344-0.5703125L47.75,46.5820313v-2.6640625l-3.3422852-1.3837891    c-0.2558594-0.1054688-0.4560547-0.3125-0.5537109-0.5722656c-0.0800781-0.2128906-0.168457-0.4160156-0.2661133-0.6201172    c-0.1230469-0.2558594-0.1308594-0.5527344-0.0214844-0.8154297l1.3925781-3.3505859l-1.8818359-1.8759766l-3.3334961,1.3847656    c-0.2573242,0.1064453-0.5478516,0.1025391-0.8012695-0.0146484c-0.215332-0.0996094-0.4301758-0.1884766-0.6538086-0.2705078    c-0.2646484-0.0957031-0.4765625-0.2988281-0.5834961-0.5585938L36.3300781,32.5h-2.6601563l-1.3754883,3.3408203    c-0.1054688,0.2558594-0.3120117,0.4560547-0.5703125,0.5546875c-0.2138672,0.0800781-0.4365234,0.1689453-0.6416016,0.2666016    c-0.2573242,0.1230469-0.5532227,0.1298828-0.8154297,0.0224609l-3.3427734-1.3847656l-1.875,1.875l1.3842773,3.3427734    c0.1088867,0.2626953,0.1005859,0.5585938-0.0219727,0.8144531c-0.097168,0.203125-0.1855469,0.4257813-0.2651367,0.6386719    c-0.097168,0.2597656-0.2988281,0.46875-0.5561523,0.5742188l-3.340332,1.375v2.6601563l3.340332,1.375    c0.2617188,0.1074219,0.465332,0.3203125,0.5605469,0.5869141c0.0805664,0.2226563,0.1699219,0.4375,0.2680664,0.6523438    c0.1157227,0.2529297,0.1210938,0.5429688,0.0141602,0.7998047l-1.3837891,3.3330078l1.8759766,1.8828125l3.3505859-1.3935547    c0.2626953-0.109375,0.559082-0.1005859,0.8164063,0.0224609c0.203125,0.0976563,0.4057617,0.1855469,0.6176758,0.2646484    c0.2597656,0.0966797,0.4677734,0.2978516,0.5737305,0.5537109L33.6679688,58z"/></g><g><path d="M37,60h-4c-0.4042969,0-0.769043-0.2431641-0.9238281-0.6171875L30.6103516,55.84375l-3.5366211,1.4707031    c-0.3754883,0.1523438-0.8061523,0.0693359-1.0922852-0.2177734l-2.8203125-2.8300781    c-0.2851563-0.2861328-0.3701172-0.7158203-0.2148438-1.0898438l1.4707031-3.5419922l-3.5473633-1.4599609    C20.4946289,48.0205078,20.25,47.6552734,20.25,47.25v-4c0-0.4052734,0.2446289-0.7705078,0.6196289-0.9248047    l3.5439453-1.4589844l-1.4677734-3.5429688c-0.1547852-0.3740234-0.0693359-0.8037109,0.2167969-1.0898438l2.8203125-2.8203125    c0.2861328-0.2861328,0.7143555-0.3740234,1.0898438-0.2167969l3.5429688,1.4677734l1.4594727-3.5449219    C32.2294922,30.7441406,32.5947266,30.5,33,30.5h4c0.4052734,0,0.7705078,0.2441406,0.9248047,0.6191406l1.4604492,3.5478516    l3.5410156-1.4707031c0.3735352-0.1523438,0.8037109-0.0693359,1.0898438,0.2158203l2.8295898,2.8203125    c0.2871094,0.2861328,0.3730469,0.7177734,0.2172852,1.0917969l-1.4697266,3.5361328l3.5390625,1.4658203    C49.5063477,42.4804688,49.75,42.8457031,49.75,43.25v4c0,0.4042969-0.2436523,0.7695313-0.6171875,0.9238281L45.59375,49.640625    l1.4692383,3.5361328c0.1552734,0.3740234,0.0698242,0.8046875-0.2163086,1.0908203l-2.8295898,2.8300781    c-0.2871094,0.2871094-0.7167969,0.3691406-1.0908203,0.2167969L39.3891602,55.84375l-1.465332,3.5390625    C37.769043,59.7558594,37.4042969,60,37,60z M33.6679688,58h2.6635742l1.3842773-3.3427734    c0.105957-0.2558594,0.3139648-0.4570313,0.5737305-0.5537109c0.2119141-0.0791016,0.4145508-0.1669922,0.6176758-0.2646484    c0.2573242-0.1220703,0.5537109-0.1308594,0.8164063-0.0224609l3.3525391,1.3935547l1.8833008-1.8837891l-1.3930664-3.3525391    c-0.109375-0.2626953-0.1015625-0.5605469,0.0219727-0.8173828c0.0976563-0.203125,0.1860352-0.4072266,0.2661133-0.6191406    c0.0976563-0.2578125,0.2978516-0.4648438,0.5527344-0.5703125L47.75,46.5820313v-2.6640625l-3.3422852-1.3837891    c-0.2558594-0.1054688-0.4560547-0.3125-0.5537109-0.5722656c-0.0800781-0.2128906-0.168457-0.4160156-0.2661133-0.6201172    c-0.1230469-0.2558594-0.1308594-0.5527344-0.0214844-0.8154297l1.3925781-3.3505859l-1.8818359-1.8759766l-3.3334961,1.3847656    c-0.2573242,0.1064453-0.5478516,0.1025391-0.8012695-0.0146484c-0.215332-0.0996094-0.4301758-0.1884766-0.6538086-0.2705078    c-0.2646484-0.0957031-0.4765625-0.2988281-0.5834961-0.5585938L36.3300781,32.5h-2.6601563l-1.3754883,3.3408203    c-0.1054688,0.2558594-0.3120117,0.4560547-0.5703125,0.5546875c-0.2138672,0.0800781-0.4365234,0.1689453-0.6416016,0.2666016    c-0.2573242,0.1230469-0.5532227,0.1298828-0.8154297,0.0224609l-3.3427734-1.3847656l-1.875,1.875l1.3842773,3.3427734    c0.1088867,0.2626953,0.1005859,0.5585938-0.0219727,0.8144531c-0.097168,0.203125-0.1855469,0.4257813-0.2651367,0.6386719    c-0.097168,0.2597656-0.2988281,0.46875-0.5561523,0.5742188l-3.340332,1.375v2.6601563l3.340332,1.375    c0.2617188,0.1074219,0.465332,0.3203125,0.5605469,0.5869141c0.0805664,0.2226563,0.1699219,0.4375,0.2680664,0.6523438    c0.1157227,0.2529297,0.1210938,0.5429688,0.0141602,0.7998047l-1.3837891,3.3330078l1.8759766,1.8828125l3.3505859-1.3935547    c0.2626953-0.109375,0.559082-0.1005859,0.8164063,0.0224609c0.203125,0.0976563,0.4057617,0.1855469,0.6176758,0.2646484    c0.2597656,0.0966797,0.4677734,0.2978516,0.5737305,0.5537109L33.6679688,58z"/></g><g><path d="M50.9213867,44.2539063H48.75c-0.1665039,0-0.3237305-0.0410156-0.4619141-0.1123047l-3.8803711-1.6074219    c-0.2558594-0.1054688-0.4560547-0.3125-0.5537109-0.5722656c-0.0800781-0.2128906-0.168457-0.4160156-0.2661133-0.6201172    c-0.1230469-0.2558594-0.1308594-0.5527344-0.0214844-0.8154297l1.3925781-3.3505859l-1.8818359-1.8759766l-3.3334961,1.3847656    c-0.2573242,0.1064453-0.5478516,0.1025391-0.8012695-0.0146484c-0.215332-0.0996094-0.4301758-0.1884766-0.6538086-0.2705078    c-0.2646484-0.0957031-0.4765625-0.2988281-0.5834961-0.5585938L36.3300781,32.5h-2.6601563l-1.3754883,3.3408203    c-0.1054688,0.2558594-0.3120117,0.4560547-0.5703125,0.5546875c-0.2138672,0.0800781-0.4365234,0.1689453-0.6416016,0.2666016    c-0.2573242,0.1230469-0.5532227,0.1298828-0.8154297,0.0224609l-3.3427734-1.3847656l-1.875,1.875l1.3842773,3.3427734    c0.1088867,0.2626953,0.1005859,0.5585938-0.0219727,0.8144531c-0.097168,0.203125-0.1855469,0.4257813-0.2651367,0.6386719    c-0.097168,0.2597656-0.2988281,0.46875-0.5561523,0.5742188l-3.8881836,1.6005859    c-0.1357422,0.0693359-0.2895508,0.1083984-0.4521484,0.1083984h-1.1347656C14.5375977,44.2539063,10,39.7109375,10,34.1259766    c0-5.2607422,4.0366211-9.5957031,9.1743164-10.0722656c-0.0390625-0.4091797-0.059082-0.8183594-0.059082-1.2246094    C19.1152344,15.7548828,24.8754883,10,31.9555664,10c4.8881836,0,9.3754883,2.8369141,11.5102539,7.1660156    c1.0297852-0.5009766,2.1547852-0.7626953,3.3081055-0.7626953c4.2011719,0,7.6191406,3.4179688,7.6191406,7.6191406    c0,0.8818359-0.1572266,1.7607422-0.4604492,2.5927734C57.5117188,27.8740234,60,31.296875,60,35.1748047    C60,40.1806641,55.9272461,44.2539063,50.9213867,44.2539063z M48.9584961,42.2539063h1.9628906    C54.824707,42.2539063,58,39.078125,58,35.1748047c0-3.3496094-2.3808594-6.2636719-5.6616211-6.9287109    c-0.3134766-0.0634766-0.5776367-0.2734375-0.7104492-0.5644531c-0.1333008-0.2910156-0.1191406-0.6269531,0.0375977-0.90625    c0.4760742-0.8466797,0.7275391-1.7988281,0.7275391-2.7529297c0-3.0986328-2.5205078-5.6191406-5.6191406-5.6191406    c-1.1435547,0-2.2509766,0.3505859-3.2021484,1.0136719c-0.2524414,0.1748047-0.5732422,0.2236328-0.8657227,0.1357422    c-0.2944336-0.0908203-0.5302734-0.3115234-0.6401367-0.5986328C40.4765625,14.7949219,36.4135742,12,31.9555664,12    c-5.9775391,0-10.840332,4.8583984-10.840332,10.8291016c0,0.6650391,0.0634766,1.3417969,0.1879883,2.0107422    c0.0615234,0.328125-0.0449219,0.6650391-0.2836914,0.8984375s-0.5795898,0.3330078-0.9042969,0.2636719    C15.640625,26.0107422,12,29.6513672,12,34.1259766c0,4.4814453,3.640625,8.1279297,8.1152344,8.1279297h0.9277344    l3.3706055-1.3876953l-1.4677734-3.5429688c-0.1547852-0.3740234-0.0693359-0.8037109,0.2167969-1.0898438l2.8203125-2.8203125    c0.2861328-0.2871094,0.7163086-0.3730469,1.0898438-0.2167969l3.5429688,1.4677734l1.4594727-3.5449219    C32.2294922,30.7441406,32.5947266,30.5,33,30.5h4c0.4052734,0,0.7705078,0.2441406,0.9248047,0.6191406l1.4604492,3.5478516    l3.5410156-1.4707031c0.3735352-0.1523438,0.8037109-0.0693359,1.0898438,0.2158203l2.8295898,2.8203125    c0.2871094,0.2861328,0.3730469,0.7177734,0.2172852,1.0917969l-1.4697266,3.5361328L48.9584961,42.2539063z"/></g><g><path d="M35.0024414,50.3779297c-2.8261719,0-5.125-2.2988281-5.125-5.125s2.2988281-5.125,5.125-5.125    s5.125,2.2988281,5.125,5.125S37.8286133,50.3779297,35.0024414,50.3779297z M35.0024414,42.1279297    c-1.7231445,0-3.125,1.4023438-3.125,3.125s1.4018555,3.125,3.125,3.125s3.125-1.4023438,3.125-3.125    S36.7255859,42.1279297,35.0024414,42.1279297z"/></g></g></g><g id="SvgjsG1063" featureKey="text1" fill="#fff" transform="matrix(2.84291021945408,0,0,2.84291021945408,150.39448576982966,20.78545161394006)"><path d="M11.12 11.12 c0.4 0 0.72 0.32 0.72 0.72 l0 1.48 c0 0.38 -0.32 0.7 -0.72 0.7 l-6.58 0 l0 5.12 c0 0.38 -0.3 0.7 -0.7 0.7 l-1.52 0 c-0.38 0 -0.7 -0.32 -0.7 -0.7 l0 -7.3 c0 -0.4 0.32 -0.72 0.7 -0.72 l8.8 0 z M12.02 5 c0.38 0 0.7 0.32 0.7 0.7 l0 1.46 c0 0.4 -0.32 0.72 -0.7 0.72 l-9.7 0 c-0.38 0 -0.7 -0.32 -0.7 -0.72 l0 -1.46 c0 -0.38 0.32 -0.7 0.7 -0.7 l9.7 0 z M22.18 5.42 l5.6 13.22 c0.06 0.1 0.1 0.22 0.1 0.34 c0 0.38 -0.3 0.7 -0.7 0.7 l0 0 l-1.66 0 c-0.28 0 -0.54 -0.16 -0.64 -0.42 l-1.46 -3.44 l-5.66 0 l-1.44 3.44 c-0.1 0.26 -0.36 0.42 -0.64 0.42 l-1.66 0 c-0.24 0 -0.46 -0.12 -0.58 -0.32 c-0.14 -0.18 -0.16 -0.44 -0.06 -0.64 l5.64 -13.3 c0.1 -0.26 0.36 -0.42 0.64 -0.42 l1.88 0 c0.28 0 0.54 0.16 0.64 0.42 z M20.6 9.06 l-1.66 3.98 l3.32 0 z M36.580000000000005 10.58 l5.62 8 c0.16 0.22 0.18 0.5 0.06 0.72 c-0.12 0.24 -0.36 0.38 -0.62 0.38 l-1.9 0 c-0.22 0 -0.44 -0.12 -0.56 -0.3 l-4.74 -6.82 l-1.94 1.82 l0 4.6 c0 0.38 -0.32 0.7 -0.7 0.7 l-1.5 0 c-0.38 0 -0.7 -0.32 -0.7 -0.7 l0 -13.28 c0 -0.38 0.32 -0.7 0.7 -0.7 l1.5 0 c0.38 0 0.7 0.32 0.7 0.7 l0 4.76 l5.62 -5.28 c0.12 -0.12 0.3 -0.18 0.48 -0.18 l2.12 0 c0.28 0 0.54 0.18 0.64 0.44 c0.12 0.26 0.04 0.56 -0.16 0.76 z M54 5 c0.38 0 0.68 0.32 0.68 0.7 l0 1.44 c0 0.38 -0.3 0.7 -0.68 0.7 l-3.94 0 l0 11.14 c0 0.38 -0.32 0.7 -0.7 0.7 l-1.5 0 c-0.4 0 -0.7 -0.32 -0.7 -0.7 l0 -11.14 l-3.94 0 c-0.38 0 -0.7 -0.32 -0.7 -0.7 l0 -1.44 c0 -0.38 0.32 -0.7 0.7 -0.7 l10.78 0 z M63.18 5 c2.16 0 3.98 0.74 5.38 2.2 c1.36 1.42 2.06 3.2 2.06 5.3 s-0.7 3.88 -2.06 5.3 c-1.4 1.46 -3.22 2.2 -5.38 2.2 s-3.98 -0.74 -5.38 -2.2 c-1.36 -1.42 -2.06 -3.2 -2.06 -5.3 s0.7 -3.88 2.06 -5.3 c1.4 -1.46 3.22 -2.2 5.38 -2.2 z M63.18 17.14 c1.4 0 2.48 -0.44 3.32 -1.32 c0.82 -0.86 1.22 -1.96 1.22 -3.32 s-0.4 -2.44 -1.22 -3.32 c-0.84 -0.88 -1.92 -1.32 -3.32 -1.32 s-2.48 0.44 -3.32 1.32 c-0.82 0.88 -1.22 1.96 -1.22 3.32 s0.4 2.46 1.22 3.32 c0.84 0.88 1.92 1.32 3.32 1.32 z M82.44 14.02 l2.98 4.58 c0.14 0.22 0.14 0.5 0.02 0.72 s-0.36 0.36 -0.6 0.36 l-1.8 0 c-0.24 0 -0.46 -0.12 -0.58 -0.32 l-3 -4.78 l-3.54 0 l0 4.4 c0 0.38 -0.32 0.7 -0.7 0.7 l-1.5 0 c-0.38 0 -0.7 -0.32 -0.7 -0.7 l0 -13.28 c0 -0.38 0.32 -0.7 0.7 -0.7 l6.36 0 c1.52 0 2.78 0.44 3.72 1.3 c0.96 0.88 1.44 2.06 1.44 3.56 c0 1.92 -0.86 3.32 -2.48 4.02 c-0.1 0.06 -0.22 0.1 -0.32 0.14 z M75.92 7.82 l0 3.94 l3.9 0 c1.16 0 1.92 -0.32 2.34 -0.98 c0.12 -0.22 0.2 -0.54 0.2 -0.92 c0 -0.66 -0.2 -1.12 -0.62 -1.48 c-0.46 -0.38 -1.06 -0.56 -1.84 -0.56 l-3.98 0 z M98.24 17.12 c0.38 0 0.7 0.32 0.7 0.7 l0 1.44 c0 0.38 -0.32 0.7 -0.7 0.7 l-10.74 0 c-0.38 0 -0.7 -0.32 -0.7 -0.7 l0 -1.46 c0 -0.16 0.06 -0.32 0.16 -0.44 l2.86 -3.46 c0.14 -0.16 0.34 -0.26 0.54 -0.26 l1.92 0 c0.26 0 0.52 0.16 0.64 0.42 c0.12 0.24 0.08 0.54 -0.1 0.74 l-1.92 2.32 l7.34 0 z M98.24 5 c0.38 0 0.7 0.32 0.7 0.72 l0 1.46 c0 0.18 -0.06 0.34 -0.16 0.46 l-2.86 3.42 c-0.12 0.16 -0.32 0.26 -0.54 0.26 l-1.9 0 c-0.28 0 -0.54 -0.16 -0.66 -0.4 c-0.1 -0.26 -0.08 -0.54 0.1 -0.76 l1.92 -2.3 l-7.2 0 c-0.4 0 -0.72 -0.32 -0.72 -0.72 l0 -1.42 c0 -0.4 0.32 -0.72 0.72 -0.72 l10.6 0 z"/></g><g id="SvgjsG1064" featureKey="text3" fill="#fff" transform="matrix(1.1699879426592041,0,0,1.1699879426592041,154.85960213866912,76.90851483916873)"><path d="M7.94 9.84 l6.02 14.16 l-1.96 0 l-1.44 -3.48 l-7.08 0 l-1.46 3.48 l-1.9 0 l6.24 -14.16 l1.58 0 z M7.08 12 l-2.94 6.96 l5.78 0 l-2.8 -6.96 l-0.04 0 z M17.46 9.84 l0 8.52 q0 2.16 0.92 3.28 t2.74 1.16 q1.82 -0.02 2.73 -1.15 t0.93 -3.21 l0 -8.6 l1.68 0 l0 8.82 q0 2.7 -1.4 4.19 t-3.94 1.51 q-2.5 0 -3.91 -1.51 t-1.43 -4.21 l0 -8.8 l1.68 0 z M39.42 9.84 l0 1.56 l-4.68 0 l0 12.6 l-1.68 0 l0 -12.6 l-4.68 0 l0 -1.56 l11.04 0 z M47.980000000000004 9.48 q3.2 0 5.28 2.1 t2.12 5.34 q-0.02 3.3 -2.14 5.36 t-5.26 2.08 q-3.2 0 -5.28 -2.11 t-2.12 -5.33 q0 -3.2 2.08 -5.3 t5.32 -2.14 z M42.38 16.92 q0 2.54 1.6 4.19 t4 1.69 q2.4 0 3.98 -1.68 t1.62 -4.2 q0 -2.46 -1.56 -4.15 t-4.06 -1.73 q-2.44 0.02 -3.99 1.71 t-1.59 4.17 z M60.58 9.84 l4.8 11.1 l0.04 0 l4.84 -11.1 l2.44 0 l0 14.16 l-1.68 0 l0 -11.88 l-0.04 0 l-5.08 11.88 l-1.02 0 l-5.08 -11.88 l-0.04 0 l0 11.88 l-1.68 0 l0 -14.16 l2.5 0 z M82.4 9.84 l6.02 14.16 l-1.96 0 l-1.44 -3.48 l-7.08 0 l-1.46 3.48 l-1.9 0 l6.24 -14.16 l1.58 0 z M81.54 12 l-2.94 6.96 l5.78 0 l-2.8 -6.96 l-0.04 0 z M99.80000000000001 9.84 l0 1.56 l-4.68 0 l0 12.6 l-1.68 0 l0 -12.6 l-4.68 0 l0 -1.56 l11.04 0 z M110.68 9.84 l0 1.56 l-7.22 0 l0 4.44 l6.74 0 l0 1.56 l-6.74 0 l0 5.04 l7.58 0 l0 1.56 l-9.26 0 l0 -14.16 l8.9 0 z  M128.70000000000002 9.84 l0 1.56 l-4.68 0 l0 12.6 l-1.68 0 l0 -12.6 l-4.68 0 l0 -1.56 l11.04 0 z M132.36 9.84 l0 6 l7.56 0 l0 -6 l1.68 0 l0 14.16 l-1.68 0 l0 -6.6 l-7.56 0 l0 6.6 l-1.68 0 l0 -14.16 l1.68 0 z M154.02 9.84 l0 1.56 l-7.22 0 l0 4.44 l6.74 0 l0 1.56 l-6.74 0 l0 5.04 l7.58 0 l0 1.56 l-9.26 0 l0 -14.16 l8.9 0 z  M168.92000000000002 9.48 q1.66 0 2.94 0.59 t2.06 1.63 l-1.46 1.06 q-0.64 -0.86 -1.58 -1.29 t-1.96 -0.43 q-2.26 0 -3.81 1.72 t-1.59 4.16 q0 2.52 1.54 4.19 t3.86 1.69 q2.54 0 4.1 -1.98 l1.26 1.06 q-1.86 2.48 -5.36 2.48 q-3.1 0 -5.13 -2.14 t-2.07 -5.3 q0 -3.16 2.05 -5.28 t5.15 -2.16 z M178.30000000000004 9.84 l0 12.6 l6.48 0 l0 1.56 l-8.16 0 l0 -14.16 l1.68 0 z M193.20000000000005 9.48 q3.2 0 5.28 2.1 t2.12 5.34 q-0.02 3.3 -2.14 5.36 t-5.26 2.08 q-3.2 0 -5.28 -2.11 t-2.12 -5.33 q0 -3.2 2.08 -5.3 t5.32 -2.14 z M187.60000000000005 16.92 q0 2.54 1.6 4.19 t4 1.69 q2.4 0 3.98 -1.68 t1.62 -4.2 q0 -2.46 -1.56 -4.15 t-4.06 -1.73 q-2.44 0.02 -3.99 1.71 t-1.59 4.17 z M204.92000000000004 9.84 l0 8.52 q0 2.16 0.92 3.28 t2.74 1.16 q1.82 -0.02 2.73 -1.15 t0.93 -3.21 l0 -8.6 l1.68 0 l0 8.82 q0 2.7 -1.4 4.19 t-3.94 1.51 q-2.5 0 -3.91 -1.51 t-1.43 -4.21 l0 -8.8 l1.68 0 z M222.40000000000006 9.84 q3.1 0 5.08 1.95 t2.02 5.13 q0 3.16 -1.99 5.1 t-5.07 1.98 l-5.32 0 l0 -14.16 l5.28 0 z M222.00000000000006 22.44 q2.66 0 4.17 -1.41 t1.53 -4.11 q0 -2.6 -1.48 -4.04 t-4.22 -1.48 l-3.2 0 l0 11.04 l3.2 0 z"/></g>
			</g>
		</svg>
	